<svg width="39" height="39" viewBox="0 0 39 39" fill="none" xmlns="http://www.w3.org/2000/svg">
<path d="M29.4754 7.32775C29.4501 7.3257 29.4287 7.3125 29.4023 7.3125H18.4844C16.8045 7.3125 15.4375 8.67954 15.4375 10.3594V11.3749C15.4375 11.9356 15.8924 12.3907 16.4531 12.3907C17.0138 12.3907 17.4686 11.9356 17.4686 11.3749V10.3594C17.4686 9.7998 17.9246 9.34381 18.4844 9.34381H23.2161L22.9063 9.4474C22.0838 9.73174 21.5313 10.5067 21.5313 11.3749V26.6093H18.4844C17.9246 26.6093 17.4686 26.1533 17.4686 25.5938V23.5624C17.4686 23.0019 17.0138 22.5469 16.4531 22.5469C15.8924 22.5469 15.4375 23.0019 15.4375 23.5624V25.5938C15.4375 27.2736 16.8045 28.6406 18.4844 28.6406H21.5313V29.6562C21.5313 30.7765 22.4421 31.6875 23.5624 31.6875C23.7798 31.6875 23.986 31.6561 24.2094 31.5869L30.3113 29.5526C31.1349 29.2683 31.6874 28.4933 31.6874 27.6251V9.34381C31.6874 8.15958 30.6667 7.23123 29.4754 7.32775Z" fill="black" fill-opacity="0.25"/>
<path d="M18.1867 16.7507L14.1243 12.6882C13.8338 12.3978 13.3971 12.3104 13.0172 12.4679C12.6384 12.6252 12.3907 12.996 12.3907 13.4063V16.4531H8.32806C7.76756 16.4531 7.3125 16.9082 7.3125 17.4687C7.3125 18.0294 7.76756 18.4844 8.32806 18.4844H12.3907V21.5313C12.3907 21.9416 12.6384 22.3122 13.0172 22.4697C13.3971 22.627 13.8338 22.5398 14.1243 22.2493L18.1867 18.1867C18.5839 17.7897 18.5839 17.1479 18.1867 16.7507Z" fill="black" fill-opacity="0.25"/>
</svg>
